PathFileType	4	(X/Y/Z)	E:\Qualisys_Data\Carbon_Farble_Plate\Data\Amateur_Runner\S1\T1\S1T1V11_c3d.trc
DataRate	CameraRate	NumFrames	NumMarkers	Units	OrigDataRate	OrigDataStartFrame	OrigNumFrames
200.000000	200.000000	4	39	mm	200.000000	122	326
Frame#	Time	LSHO			RSHO			LICST			RICST			LASIS			LHEEL			RASIS			LTROC			RTROC			SACR			LTH1			LSK4			LTH2			LTH3			RHM5			LSK2			LTH4			RTH1			LTOE			RTH2			RTH3			RTH4			LLEP			RLEP			LSK1			LSK3			RSK1			LHM5			RSK2			LFT1			RSK3			RSK4			LLME			RLME			RTOE			RHEEL			RFT1			RFT2			LFT2			
		X1	Y1	Z1	X2	Y2	Z2	X3	Y3	Z3	X4	Y4	Z4	X5	Y5	Z5	X6	Y6	Z6	X7	Y7	Z7	X8	Y8	Z8	X9	Y9	Z9	X10	Y10	Z10	X11	Y11	Z11	X12	Y12	Z12	X13	Y13	Z13	X14	Y14	Z14	X15	Y15	Z15	X16	Y16	Z16	X17	Y17	Z17	X18	Y18	Z18	X19	Y19	Z19	X20	Y20	Z20	X21	Y21	Z21	X22	Y22	Z22	X23	Y23	Z23	X24	Y24	Z24	X25	Y25	Z25	X26	Y26	Z26	X27	Y27	Z27	X28	Y28	Z28	X29	Y29	Z29	X30	Y30	Z30	X31	Y31	Z31	X32	Y32	Z32	X33	Y33	Z33	X34	Y34	Z34	X35	Y35	Z35	X36	Y36	Z36	X37	Y37	Z37	X38	Y38	Z38	X39	Y39	Z39	

123	0.61	-700.0025024414062	1433.215087890625	-598.397216796875	-712.1090698242188	1456.2412109375	-267.2080383300781	-748.883056640625	993.8919677734376	-537.7129516601562	-754.2362060546875	1004.297668457031	-236.3059997558594	-705.205078125	954.5504150390624	-512.9339599609375	-941.4064331054688	97.12005615234376	-400.3527221679688	-712.2098388671875	958.2459106445312	-245.7661895751953	-806.0918579101562	871.11669921875	-557.2288208007812	-819.4288330078125	861.5126953125	-221.1037902832031	-869.6622924804688	1014.215942382812	-384.4535522460938	-655.9849853515625	736.2392578125	-530.8850708007812	-858.748291015625	239.9704742431641	-446.5661010742188	-735.5087280273438	716.7069702148438	-555.8507080078125	-639.5833740234375	634.9473266601562	-513.557373046875	-988.1061401367188	206.3510131835938	-209.7614135742188	-806.3341064453125	318.3237609863281	-490.3824462890625	-723.3671264648438	620.1099853515625	-528.1892700195312	-653.8678588867188	769.0336303710938	-223.2870178222656	-684.7722778320312	59.6336669921875	-406.8959350585938	-727.2424926757812	741.825439453125	-201.9118194580078	-617.7843017578125	673.7319946289062	-220.0580291748047	-694.28076171875	647.0382690429688	-206.4210968017578	-663.896728515625	475.992431640625	-483.0922241210938	-621.2039794921875	497.9736633300781	-234.9528350830078	-736.85498046875	276.0941467285156	-470.5597839355469	-793.9371948242188	193.4892272949219	-460.0669860839844	-774.4821166992188	406.4767761230469	-224.3913116455078	-752.93603515625	58.03798294067383	-466.6304626464844	-806.3372192382812	478.8445434570312	-243.7274475097656	-932.1569213867188	72.06217193603516	-373.2759094238281	-863.0630493164062	362.5181274414062	-239.8076629638672	-893.7061767578125	433.0939636230469	-266.3283081054688	-880.1495361328125	109.5677337646484	-450.3294677734375	-991.755615234375	341.0818481445312	-246.0504608154297	-934.2718505859376	147.3303375244141	-275.6080932617188	-1055.647094726562	370.8385620117188	-298.0481872558594	-1074.746948242188	341.7693786621094	-326.451171875	-1075.504760742188	357.5228881835938	-269.9324645996094	-941.9172973632812	68.61219024658203	-426.3445739746094
124	0.615	-681.6524047851562	1435.080810546875	-597.71923828125	-698.2311401367188	1457.768676757812	-266.7658996582031	-732.921630859375	994.7074584960938	-538.2841186523438	-739.0497436523438	1006.649169921875	-236.9337615966797	-688.447021484375	956.6832275390624	-511.072509765625	-940.7723999023438	99.22489166259766	-401.2006225585938	-698.1116943359375	960.292724609375	-244.3459167480469	-790.5062255859375	871.7625122070312	-557.1254272460938	-804.1694946289062	863.447265625	-221.1067504882812	-853.4124145507812	1015.760070800781	-385.428466796875	-644.0245971679688	734.7110595703125	-531.109130859375	-855.5130615234375	240.9210968017578	-447.3866577148438	-723.9817504882812	716.6084594726562	-555.7362670898438	-629.4891967773438	633.0167846679688	-514.1372680664062	-954.3496704101562	200.6182861328125	-209.3304138183594	-801.5386962890625	318.6651000976562	-490.5513916015625	-713.3715209960938	619.505615234375	-528.4527587890625	-637.0128173828125	774.0725708007812	-223.0117645263672	-684.4456787109375	58.8946418762207	-406.9611206054688	-709.8778686523438	744.63232421875	-201.3540649414062	-598.5718383789062	679.4053955078125	-219.7569732666016	-674.4591674804688	650.9228515625	-206.8096008300781	-656.2540283203125	474.6518249511719	-482.5020141601562	-597.3724365234375	503.7437744140625	-235.2391662597656	-732.4908447265625	275.1086730957031	-469.8200988769531	-791.3478393554688	193.9392242431641	-459.5863647460938	-747.6819458007812	407.65087890625	-224.5840301513672	-752.7017822265625	57.9828987121582	-466.8328857421875	-781.6610107421875	479.2373352050781	-243.8035430908203	-933.4487915039062	72.38412475585938	-373.3271789550781	-835.0731811523438	361.1510314941406	-239.6711578369141	-867.6541748046875	430.5272521972656	-265.8905639648438	-879.19775390625	111.1175155639648	-449.9523620605469	-963.1634521484376	335.4427185058594	-245.4881439208984	-897.6727905273438	144.1218414306641	-275.3616333007812	-1028.161254882812	363.2665405273438	-297.1217346191406	-1046.371337890625	333.2165222167969	-325.7224426269531	-1047.714477539062	348.7621459960938	-269.2967224121094	-941.2022705078124	69.7468032836914	-426.208740234375
125	0.62	-663.4423828125	1437.295776367188	-597.0778198242188	-684.3019409179688	1459.6494140625	-266.4323425292969	-715.9661865234375	995.7010498046876	-538.3508911132812	-724.2073364257812	1009.00048828125	-237.3860778808594	-671.9218139648438	957.2971801757812	-510.5616455078125	-940.1531372070312	100.5912475585938	-401.2276306152344	-682.4805297851562	962.7191162109376	-244.5210571289062	-775.2030639648438	873.0145263671875	-556.9411010742188	-788.3914794921875	866.3013305664062	-220.6702117919922	-837.74560546875	1017.825439453125	-386.5653076171875	-631.949951171875	733.7880249023438	-530.8480224609375	-852.5167236328125	242.5851898193359	-447.3308410644531	-712.1220703125	717.212158203125	-555.838134765625	-618.9994506835938	631.9655151367188	-513.6689453125	-920.167724609375	194.6249389648438	-209.8587188720703	-797.0081787109375	319.30810546875	-490.8421630859375	-703.18701171875	620.4113159179688	-528.4462280273438	-620.3569946289062	778.9140014648438	-222.9334411621094	-683.9719848632812	58.35640716552734	-406.8551635742188	-692.3085327148438	747.72509765625	-201.4395294189453	-579.3998413085938	685.5323486328125	-219.4184417724609	-654.7012329101562	654.95263671875	-206.9479370117188	-649.2744750976562	473.5995483398438	-482.2557678222656	-573.405517578125	509.7774963378906	-235.0997467041016	-728.55908203125	275.0155334472656	-469.1839294433594	-788.6586303710938	194.2835235595703	-458.9482116699219	-721.1238403320312	409.0183715820312	-224.460693359375	-752.4041137695312	58.05084991455078	-466.8587951660156	-757.6544189453125	480.0935668945312	-243.5346221923828	-932.75390625	73.31383514404297	-373.1250610351562	-807.0902099609375	359.350341796875	-239.7812652587891	-842.0775756835938	427.9785461425781	-266.2538452148438	-877.833984375	112.6073913574219	-450.1106262207031	-934.389892578125	329.7212524414062	-244.6893768310547	-860.98486328125	141.3684692382812	-275.5049133300781	-1001.181030273438	353.7029113769531	-296.5765075683594	-1017.698486328125	324.1813354492188	-325.1804809570312	-1019.750549316406	338.9776916503906	-268.6402893066406	-940.9176025390624	70.9983901977539	-426.2467956542969
126	0.625	-645.5470581054688	1439.860473632812	-596.1541137695312	-671.0380249023438	1461.893432617188	-266.1835632324219	-698.8136596679688	996.4071044921876	-538.5408935546875	-708.8607788085938	1011.297607421875	-237.4351348876953	-655.419921875	958.5819702148438	-509.9761962890625	-939.9498291015624	101.5767211914062	-401.3069763183594	-667.1709594726562	965.1290893554688	-243.6467590332031	-760.1259155273438	874.28466796875	-556.7276000976562	-772.2739868164062	869.19970703125	-219.9795379638672	-821.6882934570312	1019.791320800781	-387.0560607910156	-619.684814453125	733.3544311523438	-530.0576171875	-849.2994995117188	244.3240966796875	-447.4126892089844	-700.1077880859375	718.1838989257812	-555.2518310546875	-608.420654296875	631.3101806640625	-512.8196411132812	-885.6690063476562	189.5958099365234	-209.1696472167969	-792.550537109375	320.2640686035156	-490.6268310546875	-692.7117309570312	620.6873779296875	-527.8180541992188	-603.2290649414062	784.2905883789062	-222.5388488769531	-683.9109497070312	57.94028472900391	-406.7032775878906	-674.4672241210938	751.8098754882812	-201.0011444091797	-560.4111328125	691.7050170898438	-219.4146575927734	-634.8770751953125	659.4651489257812	-207.4332885742188	-643.3106079101562	472.6423950195312	-482.0101928710938	-549.9783935546875	516.3751831054688	-235.2024383544922	-724.9046020507812	274.9872741699219	-468.8861999511719	-786.2529907226562	195.3711395263672	-458.9179382324219	-694.9359741210938	411.4504699707031	-222.7756500244141	-751.9027709960938	58.03093338012695	-466.7586975097656	-734.1215209960938	480.0706176757812	-244.4218444824219	-933.6704711914062	76.08645629882812	-374.4755859375	-779.236572265625	358.4576721191406	-238.9358062744141	-816.419189453125	425.3145446777344	-266.2525939941406	-877.2575073242188	114.5671157836914	-449.4806823730469	-905.5111694335938	323.7561950683594	-243.4825897216797	-823.733154296875	138.9951629638672	-275.4376220703125	-973.354736328125	344.7128295898438	-295.8030700683594	-988.4954833984376	314.6289672851562	-324.9564208984375	-991.6943359375	329.3099670410156	-268.1285400390625	-940.5042724609376	72.01832580566406	-426.1524353027344
